<svg xmlns="http://www.w3.org/2000/svg" width="510" height="674" viewBox="0 0 510 674">
<g>
<path d="M 508.34 295.01 C508.95,298.85 509.57,302.00 509.72,302.00 C509.87,302.00 510.00,234.05 510.00,151.00 L 510.00 674.00 L 0.00 674.00 L 0.00 0.00 L 510.00 0.00 L 361.25 0.19 C281.45,0.29 218.38,0.51 218.38,0.68 C218.38,0.68 218.42,0.68 218.50,0.69 C234.41,1.51 256.26,5.67 271.00,10.68 C275.12,12.09 283.90,15.84 290.50,19.03 C345.44,45.54 382.38,97.60 395.43,166.87 C401.73,200.36 402.40,237.57 397.43,278.00 C396.65,284.33 396.01,289.88 396.01,290.35 C396.00,290.82 398.59,288.96 401.75,286.23 C409.87,279.22 422.60,270.75 431.35,266.54 C443.24,260.82 453.22,258.72 466.38,259.17 C476.79,259.53 477.99,259.79 485.15,263.26 C497.89,269.45 506.08,280.66 508.34,295.01 ZM 215.90 520.60 C216.66,521.29 313.50,518.55 344.00,516.98 C375.92,515.33 375.63,515.38 380.72,510.69 C383.16,508.44 388.45,502.53 392.48,497.55 C396.52,492.57 403.18,484.75 407.30,480.16 C411.41,475.57 416.04,469.50 417.58,466.66 C419.12,463.82 421.00,460.87 421.76,460.11 C422.52,459.35 423.88,457.55 424.79,456.11 C425.70,454.67 428.53,451.02 431.08,448.00 C436.51,441.57 442.78,432.17 445.42,426.50 C447.13,422.83 457.58,406.54 460.49,403.00 C461.17,402.17 464.33,396.55 467.52,390.50 C470.70,384.45 474.31,377.91 475.53,375.96 C481.63,366.27 487.96,350.60 493.50,331.50 C497.05,319.26 497.91,304.64 495.55,296.52 C490.64,279.63 482.88,272.87 466.77,271.44 C457.04,270.58 448.64,272.25 438.13,277.16 C423.23,284.11 414.34,290.79 399.74,306.01 C392.08,313.99 385.53,320.00 384.48,320.00 C381.87,320.00 379.00,317.08 379.00,314.41 C379.00,313.16 379.67,308.92 380.50,305.00 C381.33,301.08 383.21,288.79 384.70,277.68 C387.08,259.85 387.40,254.19 387.43,229.00 C387.47,187.95 383.93,164.98 372.28,131.00 C366.47,114.05 355.93,94.08 345.62,80.50 C338.23,70.77 319.13,51.31 313.11,47.37 C310.70,45.79 305.75,42.56 302.11,40.18 C292.84,34.12 275.90,25.73 266.86,22.70 C216.12,5.74 157.39,11.35 113.68,37.33 C84.42,54.73 61.97,79.67 42.49,116.41 C31.63,136.90 20.91,174.41 16.60,207.00 C10.31,254.61 12.74,318.64 23.08,377.50 C30.88,421.86 43.18,468.38 51.52,485.00 C53.32,488.58 56.46,495.77 58.50,501.00 C64.20,515.59 62.27,514.66 90.50,516.44 C123.91,518.54 132.18,518.85 176.50,519.59 C197.95,519.94 215.68,520.40 215.90,520.60 ZM 174.50 659.94 C206.18,660.88 258.71,660.44 292.98,658.95 C358.22,656.11 364.09,655.63 380.00,651.79 C398.85,647.24 402.25,636.87 403.68,579.58 C404.30,554.78 404.26,554.05 402.03,548.07 C398.98,539.93 392.15,532.63 386.00,530.94 C381.41,529.69 361.81,530.09 279.50,533.15 C247.10,534.36 145.25,533.67 115.50,532.04 C75.36,529.85 62.72,529.69 58.89,531.35 C53.80,533.55 46.26,541.20 43.68,546.78 C41.57,551.34 41.50,552.58 41.64,583.51 C41.71,601.12 42.27,618.71 42.87,622.60 C44.15,630.83 48.05,640.32 51.76,644.25 C54.40,647.03 68.23,652.03 73.14,651.97 C75.45,651.95 75.45,651.91 72.71,650.22 C69.32,648.13 68.32,644.76 69.85,640.53 C70.48,638.78 71.00,636.20 71.00,634.80 C71.00,633.10 71.66,632.06 72.94,631.73 C75.22,631.13 76.00,631.71 76.00,634.00 C76.00,634.91 77.41,637.79 79.13,640.39 C81.78,644.38 82.10,645.49 81.19,647.47 C80.60,648.77 79.12,650.14 77.90,650.53 C75.82,651.19 75.79,651.30 77.50,652.26 C81.31,654.39 87.08,655.14 106.00,655.96 C116.72,656.42 129.77,657.30 135.00,657.92 C140.23,658.54 158.00,659.45 174.50,659.94 ZM 287.50 673.32 C287.36,673.33 287.29,673.33 287.29,673.34 C287.29,673.49 334.49,673.70 395.25,673.80 L 510.00 674.00 L 509.86 494.25 C509.79,396.23 509.57,316.98 509.37,316.98 C509.37,316.98 509.37,316.99 509.37,317.00 C506.32,338.29 502.46,350.49 491.05,374.90 C471.83,415.99 433.98,472.67 400.25,510.86 L 392.86 519.22 L 396.68 521.75 C405.47,527.56 409.94,533.15 414.09,543.50 C416.48,549.46 416.50,549.76 416.38,584.00 C416.26,622.12 415.16,633.61 410.69,643.36 C405.39,654.94 394.43,663.18 380.00,666.43 C367.77,669.19 343.08,671.03 287.50,673.32 ZM 0.19 125.25 C0.30,191.95 0.50,244.17 0.66,244.17 C0.66,244.17 0.67,244.11 0.67,244.00 C3.21,187.17 15.34,139.05 36.99,100.00 C54.68,68.08 80.10,41.96 109.84,25.15 C133.04,12.04 161.14,3.38 188.00,1.09 C193.66,0.60 157.59,0.22 98.75,0.14 L 0.00 0.00 ZM 0.15 474.25 L 0.00 674.00 L 87.75 673.79 C132.82,673.69 166.51,673.49 166.51,673.34 C166.51,673.33 166.35,673.32 166.00,673.31 C145.83,672.71 98.85,669.87 85.50,668.43 C67.84,666.53 61.38,664.95 52.04,660.25 C40.08,654.23 33.50,644.36 31.07,628.77 C29.50,618.73 27.75,573.45 28.50,562.32 C29.28,550.76 33.03,538.28 37.47,532.45 C40.16,528.93 48.81,521.56 51.21,520.76 C52.08,520.47 51.04,517.31 47.73,510.29 C32.78,478.49 18.86,428.13 9.11,370.50 C5.66,350.17 2.20,316.35 1.12,292.50 C1.09,291.79 1.06,291.45 1.02,291.45 C0.58,291.45 0.24,362.41 0.15,474.25 ZM 145.22 355.41 C141.84,357.79 139.67,358.48 134.73,358.78 C129.21,359.10 127.98,358.81 123.97,356.24 C115.73,350.94 111.66,342.78 111.66,331.50 C111.65,322.10 113.82,316.87 120.21,310.92 C130.38,301.43 144.59,303.91 152.50,316.54 C155.16,320.79 155.54,322.37 155.84,330.42 C156.16,339.08 156.02,339.80 152.83,345.96 C150.54,350.37 148.13,353.37 145.22,355.41 ZM 307.50 357.08 C293.20,363.79 278.59,352.05 277.21,332.73 C276.66,324.94 278.24,320.20 283.68,313.34 C289.93,305.47 298.99,303.11 307.54,307.12 C316.77,311.46 322.00,320.90 322.00,333.21 C322.00,344.04 316.70,352.76 307.50,357.08 ZM 231.35 386.54 C226.30,389.09 224.27,389.53 216.50,389.70 C206.33,389.92 200.68,388.50 195.13,384.33 C187.23,378.38 183.00,371.05 183.00,363.30 C183.00,360.67 183.55,359.70 185.59,358.78 C189.40,357.04 192.97,359.39 194.78,364.83 C196.95,371.37 201.76,375.60 208.64,377.03 C219.67,379.32 229.89,376.11 233.82,369.11 C235.02,366.98 236.00,364.50 236.00,363.61 C236.00,361.23 239.65,358.00 242.35,358.00 C245.25,358.00 248.00,360.90 248.00,363.96 C248.00,372.14 240.98,381.66 231.35,386.54 ZM 372.04 648.98 C369.49,650.34 369.31,650.31 367.00,648.00 C365.90,646.90 365.00,644.76 365.00,643.25 C365.00,637.35 368.93,620.23 371.15,616.48 C373.17,613.05 373.44,611.38 373.26,603.52 C373.15,598.56 373.43,591.58 373.89,588.00 C374.72,581.55 374.73,581.53 374.86,586.42 C374.94,589.27 375.65,592.06 376.54,593.04 C377.53,594.14 378.19,597.25 378.41,601.86 C378.59,605.78 379.21,609.55 379.78,610.24 C381.00,611.71 376.96,642.34 375.09,645.83 C374.47,647.00 373.09,648.41 372.04,648.98 ZM 126.75 332.92 C129.70,334.64 132.03,334.13 135.08,331.08 C137.53,328.62 138.00,327.35 138.00,323.15 C138.00,318.93 137.58,317.82 135.37,316.07 C127.41,309.82 118.57,319.46 123.50,329.00 C124.32,330.60 125.79,332.36 126.75,332.92 ZM 293.02 332.71 C298.51,335.47 304.00,330.62 304.00,323.02 C304.00,318.94 303.57,317.80 301.37,316.07 C297.71,313.20 294.37,313.47 290.92,316.92 C286.28,321.56 287.39,329.88 293.02,332.71 ZM 149.55 650.95 C147.18,653.56 143.98,653.56 141.19,650.96 C138.62,648.56 138.54,648.01 140.40,645.46 C141.37,644.14 141.64,641.95 141.28,638.41 C140.76,633.38 142.36,626.00 143.97,626.00 C144.90,626.00 145.79,629.16 147.07,637.00 C147.56,640.03 148.74,643.94 149.68,645.70 C151.32,648.75 151.31,648.99 149.55,650.95 ZM 306.17 651.35 C303.56,653.71 299.42,653.43 297.56,650.78 C294.82,646.87 295.71,642.62 300.47,636.88 L 302.65 634.27 L 305.32 636.22 C307.69,637.94 308.00,638.83 308.00,643.93 C308.00,648.24 307.54,650.11 306.17,651.35 ZM 224.11 654.94 C223.02,655.52 221.99,655.96 221.82,655.92 C219.91,655.44 218.72,654.37 217.50,652.00 C216.19,649.46 216.21,648.97 217.77,647.17 C220.56,643.95 223.34,643.66 225.85,646.34 C227.67,648.28 227.89,649.16 227.08,651.29 C226.54,652.71 225.20,654.36 224.11,654.94 ZM 71.19 609.00 C70.75,609.00 69.90,610.24 69.30,611.75 C68.44,613.95 68.25,612.27 68.36,603.33 C68.50,592.18 68.92,590.22 70.93,591.46 C72.17,592.23 72.42,609.00 71.19,609.00 ZM 222.51 565.97 C221.17,573.84 218.96,569.60 219.13,559.50 C219.19,556.20 219.46,554.38 219.73,555.46 C220.00,556.54 220.89,558.43 221.71,559.68 C222.75,561.27 222.99,563.13 222.51,565.97 ZM 142.93 604.25 C142.83,607.36 141.59,610.25 140.72,609.39 C139.30,607.96 139.93,602.00 141.50,602.00 C142.41,602.00 142.97,602.89 142.93,604.25 ZM 377.00 574.68 C377.00,575.48 376.37,576.77 375.61,577.53 C374.42,578.72 374.15,578.49 373.78,575.96 C373.54,574.32 373.54,572.80 373.77,572.56 C374.63,571.70 377.00,573.26 377.00,574.68 ZM 142.00 616.94 C142.00,618.56 141.58,620.14 141.07,620.46 C139.85,621.21 138.78,617.74 139.58,615.64 C140.60,613.00 142.00,613.75 142.00,616.94 ZM 70.97 558.00 C70.97,559.38 70.53,561.17 70.00,562.00 C69.23,563.19 69.03,562.98 69.03,561.00 C69.03,559.62 69.47,557.83 70.00,557.00 C70.77,555.81 70.97,556.02 70.97,558.00 Z" fill="rgb(26,45,73)"/>
<path d="M 215.90 520.60 C215.68,520.40 197.95,519.94 176.50,519.59 C132.18,518.85 123.91,518.54 90.50,516.44 C62.27,514.66 64.20,515.59 58.50,501.00 C56.46,495.77 53.32,488.58 51.52,485.00 C43.18,468.38 30.88,421.86 23.08,377.50 C12.74,318.64 10.31,254.61 16.60,207.00 C20.91,174.41 31.63,136.90 42.49,116.41 C61.97,79.67 84.42,54.73 113.68,37.33 C157.39,11.35 216.12,5.74 266.86,22.70 C275.90,25.73 292.84,34.12 302.11,40.18 C305.75,42.56 310.70,45.79 313.11,47.37 C319.13,51.31 338.23,70.77 345.62,80.50 C355.93,94.08 366.47,114.05 372.28,131.00 C383.93,164.98 387.47,187.95 387.43,229.00 C387.40,254.19 387.08,259.85 384.70,277.68 C383.21,288.79 381.33,301.08 380.50,305.00 C379.67,308.92 379.00,313.16 379.00,314.41 C379.00,317.08 381.87,320.00 384.48,320.00 C385.53,320.00 392.08,313.99 399.74,306.01 C414.34,290.79 423.23,284.11 438.13,277.16 C448.64,272.25 457.04,270.58 466.77,271.44 C482.88,272.87 490.64,279.63 495.55,296.52 C497.91,304.64 497.05,319.26 493.50,331.50 C487.96,350.60 481.63,366.27 475.53,375.96 C474.31,377.91 470.70,384.45 467.52,390.50 C464.33,396.55 461.17,402.17 460.49,403.00 C457.58,406.54 447.13,422.83 445.42,426.50 C442.78,432.17 436.51,441.57 431.08,448.00 C428.53,451.02 425.70,454.67 424.79,456.11 C423.88,457.55 422.52,459.35 421.76,460.11 C421.00,460.87 419.12,463.82 417.58,466.66 C416.04,469.50 411.41,475.57 407.30,480.16 C403.18,484.75 396.52,492.57 392.48,497.55 C388.45,502.53 383.16,508.44 380.72,510.69 C375.63,515.38 375.92,515.33 344.00,516.98 C313.50,518.55 216.66,521.29 215.90,520.60 ZM 174.50 659.94 C158.00,659.45 140.23,658.54 135.00,657.92 C129.77,657.30 116.72,656.42 106.00,655.96 C87.08,655.14 81.31,654.39 77.50,652.26 C75.79,651.30 75.82,651.19 77.90,650.53 C79.12,650.14 80.60,648.77 81.19,647.47 C82.10,645.49 81.78,644.38 79.13,640.39 C77.41,637.79 76.00,634.91 76.00,634.00 C76.00,631.71 75.22,631.13 72.94,631.73 C71.66,632.06 71.00,633.10 71.00,634.80 C71.00,636.20 70.48,638.78 69.85,640.53 C68.32,644.76 69.32,648.13 72.71,650.22 C75.45,651.91 75.45,651.95 73.14,651.97 C68.23,652.03 54.40,647.03 51.76,644.25 C48.05,640.32 44.15,630.83 42.87,622.60 C42.27,618.71 41.71,601.12 41.64,583.51 C41.50,552.58 41.57,551.34 43.68,546.78 C46.26,541.20 53.80,533.55 58.89,531.35 C62.72,529.69 75.36,529.85 115.50,532.04 C145.25,533.67 247.10,534.36 279.50,533.15 C361.81,530.09 381.41,529.69 386.00,530.94 C392.15,532.63 398.98,539.93 402.03,548.07 C404.26,554.05 404.30,554.78 403.68,579.58 C402.25,636.87 398.85,647.24 380.00,651.79 C364.09,655.63 358.22,656.11 292.98,658.95 C258.71,660.44 206.18,660.88 174.50,659.94 ZM 145.22 355.41 C148.13,353.37 150.54,350.37 152.83,345.96 C156.02,339.80 156.16,339.08 155.84,330.42 C155.54,322.37 155.16,320.79 152.50,316.54 C144.59,303.91 130.38,301.43 120.21,310.92 C113.82,316.87 111.65,322.10 111.66,331.50 C111.66,342.78 115.73,350.94 123.97,356.24 C127.98,358.81 129.21,359.10 134.73,358.78 C139.67,358.48 141.84,357.79 145.22,355.41 ZM 307.50 357.08 C316.70,352.76 322.00,344.04 322.00,333.21 C322.00,320.90 316.77,311.46 307.54,307.12 C298.99,303.11 289.93,305.47 283.68,313.34 C278.24,320.20 276.66,324.94 277.21,332.73 C278.59,352.05 293.20,363.79 307.50,357.08 ZM 316.50 395.90 C330.79,399.10 350.64,394.47 354.48,387.04 C359.43,377.46 351.69,369.78 334.14,366.89 C320.99,364.71 304.24,369.28 300.03,376.18 C297.39,380.51 297.47,381.78 300.66,386.70 C303.46,391.01 308.98,394.22 316.50,395.90 ZM 93.00 395.67 C101.90,397.75 114.47,396.80 121.86,393.48 C140.75,385.00 134.73,370.43 110.90,366.92 C97.42,364.94 82.44,368.82 77.00,375.72 C74.40,379.02 74.71,384.92 77.67,388.18 C80.29,391.09 86.63,394.18 93.00,395.67 ZM 231.35 386.54 C240.98,381.66 248.00,372.14 248.00,363.96 C248.00,360.90 245.25,358.00 242.35,358.00 C239.65,358.00 236.00,361.23 236.00,363.61 C236.00,364.50 235.02,366.98 233.82,369.11 C229.89,376.11 219.67,379.32 208.64,377.03 C201.76,375.60 196.95,371.37 194.78,364.83 C192.97,359.39 189.40,357.04 185.59,358.78 C183.55,359.70 183.00,360.67 183.00,363.30 C183.00,371.05 187.23,378.38 195.13,384.33 C200.68,388.50 206.33,389.92 216.50,389.70 C224.27,389.53 226.30,389.09 231.35,386.54 ZM 372.04 648.98 C373.09,648.41 374.47,647.00 375.09,645.83 C376.96,642.34 381.00,611.71 379.78,610.24 C379.21,609.55 378.59,605.78 378.41,601.86 C378.19,597.25 377.53,594.14 376.54,593.04 C375.65,592.06 374.94,589.27 374.86,586.42 C374.73,581.53 374.72,581.55 373.89,588.00 C373.43,591.58 373.15,598.56 373.26,603.52 C373.44,611.38 373.17,613.05 371.15,616.48 C368.93,620.23 365.00,637.35 365.00,643.25 C365.00,644.76 365.90,646.90 367.00,648.00 C369.31,650.31 369.49,650.34 372.04,648.98 ZM 149.55 650.95 C151.31,648.99 151.32,648.75 149.68,645.70 C148.74,643.94 147.56,640.03 147.07,637.00 C145.79,629.16 144.90,626.00 143.97,626.00 C142.36,626.00 140.76,633.38 141.28,638.41 C141.64,641.95 141.37,644.14 140.40,645.46 C138.54,648.01 138.62,648.56 141.19,650.96 C143.98,653.56 147.18,653.56 149.55,650.95 ZM 306.17 651.35 C307.54,650.11 308.00,648.24 308.00,643.93 C308.00,638.83 307.69,637.94 305.32,636.22 L 302.65 634.27 L 300.47 636.88 C295.71,642.62 294.82,646.87 297.56,650.78 C299.42,653.43 303.56,653.71 306.17,651.35 ZM 224.11 654.94 C225.20,654.36 226.54,652.71 227.08,651.29 C227.89,649.16 227.67,648.28 225.85,646.34 C223.34,643.66 220.56,643.95 217.77,647.17 C216.21,648.97 216.19,649.46 217.50,652.00 C218.72,654.37 219.91,655.44 221.82,655.92 C221.99,655.96 223.02,655.52 224.11,654.94 ZM 71.19 609.00 C72.42,609.00 72.17,592.23 70.93,591.46 C68.92,590.22 68.50,592.18 68.36,603.33 C68.25,612.27 68.44,613.95 69.30,611.75 C69.90,610.24 70.75,609.00 71.19,609.00 ZM 222.51 565.97 C222.99,563.13 222.75,561.27 221.71,559.68 C220.89,558.43 220.00,556.54 219.73,555.46 C219.46,554.38 219.19,556.20 219.13,559.50 C218.96,569.60 221.17,573.84 222.51,565.97 ZM 142.93 604.25 C142.97,602.89 142.41,602.00 141.50,602.00 C139.93,602.00 139.30,607.96 140.72,609.39 C141.59,610.25 142.83,607.36 142.93,604.25 ZM 377.00 574.68 C377.00,573.26 374.63,571.70 373.77,572.56 C373.54,572.80 373.54,574.32 373.78,575.96 C374.15,578.49 374.42,578.72 375.61,577.53 C376.37,576.77 377.00,575.48 377.00,574.68 ZM 142.00 616.94 C142.00,613.75 140.60,613.00 139.58,615.64 C138.78,617.74 139.85,621.21 141.07,620.46 C141.58,620.14 142.00,618.56 142.00,616.94 ZM 239.08 0.49 C225.67,0.74 227.78,1.17 233.00,1.95 C244.20,3.64 253.41,5.51 261.98,7.95 C248.22,4.22 231.41,1.35 218.50,0.69 C218.42,0.68 218.38,0.68 218.38,0.68 C218.38,0.62 225.92,0.55 239.08,0.49 ZM 0.20 427.53 C0.34,343.02 0.65,291.45 1.02,291.45 C1.06,291.45 1.09,291.79 1.12,292.50 C1.38,298.32 1.79,304.73 2.30,311.39 C1.84,306.02 1.37,300.69 1.08,297.50 C1.07,297.36 1.06,297.28 1.04,297.28 C0.69,297.28 0.35,351.13 0.20,427.53 ZM 70.97 558.00 C70.97,556.02 70.77,555.81 70.00,557.00 C69.47,557.83 69.03,559.62 69.03,561.00 C69.03,562.98 69.23,563.19 70.00,562.00 C70.53,561.17 70.97,559.38 70.97,558.00 ZM 8.38 365.99 C8.62,367.55 8.86,369.06 9.11,370.50 C13.37,395.70 18.43,419.51 24.03,440.98 C20.98,429.47 18.14,417.51 15.63,405.50 C13.33,394.51 11.94,387.07 9.09,370.50 C8.87,369.25 8.63,367.72 8.38,365.99 ZM 180.33 1.91 C182.37,1.58 184.24,1.28 185.50,1.07 C187.39,0.75 172.15,0.47 146.02,0.29 C175.83,0.47 191.92,0.75 188.00,1.09 C185.45,1.31 182.89,1.58 180.33,1.91 ZM 0.57 239.22 C0.73,238.30 1.03,235.47 1.38,231.76 C1.09,235.80 0.86,239.88 0.67,244.00 C0.67,244.11 0.66,244.17 0.66,244.17 C0.63,244.17 0.60,242.44 0.57,239.22 ZM 4.44 202.50 C9.85,163.62 20.74,129.30 36.99,100.00 C20.82,129.16 9.96,163.38 4.44,202.50 ZM 146.38 9.42 C153.87,7.04 161.39,5.13 168.58,3.80 C161.12,5.24 153.68,7.13 146.38,9.42 ZM 282.37 15.29 C285.02,16.44 287.72,17.68 290.50,19.03 C287.98,17.81 285.15,16.51 282.37,15.29 Z" fill="rgb(50,71,104)"/>
<path d="M 0.13 481.25 C0.21,374.52 0.63,292.52 1.08,297.50 C1.53,302.45 2.41,312.58 3.04,320.00 C4.26,334.50 7.40,360.73 9.09,370.50 C11.94,387.07 13.33,394.51 15.63,405.50 C24.11,446.10 36.39,486.16 47.73,510.29 C51.04,517.31 52.08,520.47 51.21,520.76 C48.81,521.56 40.16,528.93 37.47,532.45 C33.03,538.28 29.28,550.76 28.50,562.32 C27.75,573.45 29.50,618.73 31.07,628.77 C33.50,644.36 40.08,654.23 52.04,660.25 C61.38,664.95 67.84,666.53 85.50,668.43 C98.85,669.87 145.83,672.71 166.00,673.31 C171.23,673.46 136.01,673.68 87.75,673.79 L 0.00 674.00 L 0.13 481.25 ZM 287.50 673.32 C343.08,671.03 367.77,669.19 380.00,666.43 C394.43,663.18 405.39,654.94 410.69,643.36 C415.16,633.61 416.26,622.12 416.38,584.00 C416.50,549.76 416.48,549.46 414.09,543.50 C409.94,533.15 405.47,527.56 396.68,521.75 L 392.86 519.22 L 400.25 510.86 C433.98,472.67 471.83,415.99 491.05,374.90 C502.46,350.49 506.32,338.29 509.37,317.00 C509.57,315.62 509.79,395.39 509.86,494.25 L 510.00 674.00 L 395.25 673.80 C332.14,673.70 283.65,673.48 287.50,673.32 ZM 93.00 395.67 C86.63,394.18 80.29,391.09 77.67,388.18 C74.71,384.92 74.40,379.02 77.00,375.72 C82.44,368.82 97.42,364.94 110.90,366.92 C134.73,370.43 140.75,385.00 121.86,393.48 C114.47,396.80 101.90,397.75 93.00,395.67 ZM 316.50 395.90 C308.98,394.22 303.46,391.01 300.66,386.70 C297.47,381.78 297.39,380.51 300.03,376.18 C304.24,369.28 320.99,364.71 334.14,366.89 C351.69,369.78 359.43,377.46 354.48,387.04 C350.64,394.47 330.79,399.10 316.50,395.90 ZM 126.75 332.92 C125.79,332.36 124.32,330.60 123.50,329.00 C118.57,319.46 127.41,309.82 135.37,316.07 C137.58,317.82 138.00,318.93 138.00,323.15 C138.00,327.35 137.53,328.62 135.08,331.08 C132.03,334.13 129.70,334.64 126.75,332.92 ZM 293.02 332.71 C287.39,329.88 286.28,321.56 290.92,316.92 C294.37,313.47 297.71,313.20 301.37,316.07 C303.57,317.80 304.00,318.94 304.00,323.02 C304.00,330.62 298.51,335.47 293.02,332.71 ZM 508.34 295.01 C506.08,280.66 497.89,269.45 485.15,263.26 C477.99,259.79 476.79,259.53 466.38,259.17 C453.22,258.72 443.24,260.82 431.35,266.54 C422.60,270.75 409.87,279.22 401.75,286.23 C398.59,288.96 396.00,290.82 396.01,290.35 C396.01,289.88 396.65,284.33 397.43,278.00 C402.40,237.57 401.73,200.36 395.43,166.87 C382.38,97.60 345.44,45.54 290.50,19.03 C271.72,9.96 256.86,5.55 233.00,1.95 C221.77,0.26 224.92,0.22 365.75,0.11 L 510.00 0.00 L 510.00 151.00 C510.00,234.05 509.87,302.00 509.72,302.00 C509.57,302.00 508.95,298.85 508.34,295.01 ZM 0.08 120.25 L 0.00 0.00 L 95.25 0.11 C150.72,0.18 188.41,0.58 185.50,1.07 C182.75,1.53 177.12,2.43 173.00,3.06 C152.47,6.19 128.60,14.54 109.84,25.15 C80.10,41.96 54.68,68.08 36.99,100.00 C17.68,134.83 5.94,176.75 1.97,225.00 C1.36,232.43 0.70,238.95 0.51,239.50 C0.32,240.05 0.12,186.39 0.08,120.25 Z" fill="rgb(243,160,172)"/>
<path d="M 0.13 481.25 C0.21,374.52 0.63,292.52 1.08,297.50 C1.53,302.45 2.41,312.58 3.04,320.00 C4.26,334.50 7.40,360.73 9.09,370.50 C11.94,387.07 13.33,394.51 15.63,405.50 C24.11,446.10 36.39,486.16 47.73,510.29 C51.04,517.31 52.08,520.47 51.21,520.76 C48.81,521.56 40.16,528.93 37.47,532.45 C33.03,538.28 29.28,550.76 28.50,562.32 C27.75,573.45 29.50,618.73 31.07,628.77 C33.50,644.36 40.08,654.23 52.04,660.25 C61.38,664.95 67.84,666.53 85.50,668.43 C98.85,669.87 145.83,672.71 166.00,673.31 C171.23,673.46 136.01,673.68 87.75,673.79 L 0.00 674.00 L 0.13 481.25 ZM 287.50 673.32 C343.08,671.03 367.77,669.19 380.00,666.43 C394.43,663.18 405.39,654.94 410.69,643.36 C415.16,633.61 416.26,622.12 416.38,584.00 C416.50,549.76 416.48,549.46 414.09,543.50 C409.94,533.15 405.47,527.56 396.68,521.75 L 392.86 519.22 L 400.25 510.86 C433.98,472.67 471.83,415.99 491.05,374.90 C502.46,350.49 506.32,338.29 509.37,317.00 C509.57,315.62 509.79,395.39 509.86,494.25 L 510.00 674.00 L 395.25 673.80 C332.14,673.70 283.65,673.48 287.50,673.32 ZM 126.75 332.92 C125.79,332.36 124.32,330.60 123.50,329.00 C118.57,319.46 127.41,309.82 135.37,316.07 C137.58,317.82 138.00,318.93 138.00,323.15 C138.00,327.35 137.53,328.62 135.08,331.08 C132.03,334.13 129.70,334.64 126.75,332.92 ZM 293.02 332.71 C287.39,329.88 286.28,321.56 290.92,316.92 C294.37,313.47 297.71,313.20 301.37,316.07 C303.57,317.80 304.00,318.94 304.00,323.02 C304.00,330.62 298.51,335.47 293.02,332.71 ZM 508.34 295.01 C506.08,280.66 497.89,269.45 485.15,263.26 C477.99,259.79 476.79,259.53 466.38,259.17 C453.22,258.72 443.24,260.82 431.35,266.54 C422.60,270.75 409.87,279.22 401.75,286.23 C398.59,288.96 396.00,290.82 396.01,290.35 C396.01,289.88 396.65,284.33 397.43,278.00 C402.40,237.57 401.73,200.36 395.43,166.87 C382.38,97.60 345.44,45.54 290.50,19.03 C271.72,9.96 256.86,5.55 233.00,1.95 C221.77,0.26 224.92,0.22 365.75,0.11 L 510.00 0.00 L 510.00 151.00 C510.00,234.05 509.87,302.00 509.72,302.00 C509.57,302.00 508.95,298.85 508.34,295.01 ZM 0.08 120.25 L 0.00 0.00 L 95.25 0.11 C150.72,0.18 188.41,0.58 185.50,1.07 C182.75,1.53 177.12,2.43 173.00,3.06 C152.47,6.19 128.60,14.54 109.84,25.15 C80.10,41.96 54.68,68.08 36.99,100.00 C17.68,134.83 5.94,176.75 1.97,225.00 C1.36,232.43 0.70,238.95 0.51,239.50 C0.32,240.05 0.12,186.39 0.08,120.25 Z" fill="rgb(254,254,254)"/>
</g>
</svg>